<svg width="984" height="471" viewBox="0 0 984 471" fill="none" xmlns="http://www.w3.org/2000/svg">
<path fill-rule="evenodd" clip-rule="evenodd" d="M155.367 342.229H90.5258V361.842H138.291C141.214 361.842 143.599 362.842 145.445 364.842C147.444 366.688 148.444 369.073 148.444 371.996V459.45C148.444 462.373 147.444 464.834 145.445 466.834C143.599 468.68 141.214 469.603 138.291 469.603H106.217L101.371 460.373H119.831C120.447 460.373 120.985 460.143 121.446 459.681C121.908 459.22 122.139 458.604 122.139 457.835V373.611C122.139 372.995 121.908 372.457 121.446 371.996C120.985 371.38 120.447 371.073 119.831 371.073H35.607C34.9917 371.073 34.3763 371.38 33.7609 371.996C33.2994 372.457 33.0687 372.995 33.0687 373.611V469.603H6.99383V371.996C6.99383 369.073 7.99372 366.688 9.99357 364.842C11.8396 362.842 14.2241 361.842 17.1469 361.842H64.451V342.229H0.0712891V332.999H64.451V315H90.5258V332.999H155.367V342.229ZM116.601 441.913H90.5258V467.065H64.451V441.913H38.3759V432.683H64.451V410.762H41.8372V401.532H48.9906L41.145 380.303H66.2969L74.3732 401.532H80.8342L88.6798 380.303H113.832L106.217 401.532H113.37V410.762H90.5258V432.683H116.601V441.913Z" fill="#323233"/>
<path fill-rule="evenodd" clip-rule="evenodd" d="M155.367 342.229H90.5258V361.842H138.291C141.214 361.842 143.599 362.842 145.445 364.842C147.444 366.688 148.444 369.073 148.444 371.996V459.45C148.444 462.373 147.444 464.834 145.445 466.834C143.599 468.68 141.214 469.603 138.291 469.603H106.217L101.371 460.373H119.831C120.447 460.373 120.985 460.143 121.446 459.681C121.908 459.22 122.139 458.604 122.139 457.835V373.611C122.139 372.995 121.908 372.457 121.446 371.996C120.985 371.38 120.447 371.073 119.831 371.073H35.607C34.9917 371.073 34.3763 371.38 33.7609 371.996C33.2994 372.457 33.0687 372.995 33.0687 373.611V469.603H6.99383V371.996C6.99383 369.073 7.99372 366.688 9.99357 364.842C11.8396 362.842 14.2241 361.842 17.1469 361.842H64.451V342.229H0.0712891V332.999H64.451V315H90.5258V332.999H155.367V342.229ZM116.601 441.913H90.5258V467.065H64.451V441.913H38.3759V432.683H64.451V410.762H41.8372V401.532H48.9906L41.145 380.303H66.2969L74.3732 401.532H80.8342L88.6798 380.303H113.832L106.217 401.532H113.37V410.762H90.5258V432.683H116.601V441.913Z" stroke="#323233" stroke-width="0.142643"/>
<path fill-rule="evenodd" clip-rule="evenodd" d="M312.739 454.605L320.815 458.297V469.142L293.817 458.297C289.664 456.604 286.741 453.758 285.049 449.759L269.588 415.608H294.048L309.97 451.835C310.431 452.912 311.354 453.835 312.739 454.605ZM192.287 415.608H216.977L202.44 449.297C200.44 453.451 197.44 456.374 193.44 458.066L165.52 469.142V458.297L174.057 454.605C175.442 453.835 176.365 452.912 176.826 451.835L192.287 415.608ZM298.202 403.839H256.435V458.989C256.435 461.758 255.436 464.142 253.436 466.142C251.59 467.988 249.205 468.911 246.282 468.911H213.746L208.901 459.681H227.822C228.438 459.681 228.976 459.45 229.438 458.989C229.899 458.527 230.13 457.989 230.13 457.374V403.839H188.133C185.21 403.839 182.826 402.839 180.98 400.84C178.98 398.993 177.98 396.609 177.98 393.686V359.535C177.98 356.766 178.98 354.382 180.98 352.382C182.826 350.382 185.21 349.382 188.133 349.382H298.202C301.124 349.382 303.509 350.382 305.355 352.382C307.355 354.382 308.355 356.766 308.355 359.535V393.686C308.355 396.609 307.355 398.993 305.355 400.84C303.509 402.839 301.124 403.839 298.202 403.839ZM204.286 361.15V392.071C204.286 392.686 204.516 393.225 204.978 393.686C205.439 394.302 205.978 394.609 206.593 394.609H279.741C280.357 394.609 280.895 394.302 281.357 393.686C281.972 393.225 282.28 392.686 282.28 392.071V361.15C282.28 360.535 281.972 359.996 281.357 359.535C280.895 359.073 280.357 358.843 279.741 358.843H206.593C205.978 358.843 205.439 359.073 204.978 359.535C204.516 359.996 204.286 360.535 204.286 361.15ZM318.277 328.384V337.844H168.058V328.384H230.13L226.669 315H252.743L256.435 328.384H318.277Z" fill="#323233"/>
<path fill-rule="evenodd" clip-rule="evenodd" d="M312.739 454.605L320.815 458.297V469.142L293.817 458.297C289.664 456.604 286.741 453.758 285.049 449.759L269.588 415.608H294.048L309.97 451.835C310.431 452.912 311.354 453.835 312.739 454.605ZM192.287 415.608H216.977L202.44 449.297C200.44 453.451 197.44 456.374 193.44 458.066L165.52 469.142V458.297L174.057 454.605C175.442 453.835 176.365 452.912 176.826 451.835L192.287 415.608ZM298.202 403.839H256.435V458.989C256.435 461.758 255.436 464.142 253.436 466.142C251.59 467.988 249.205 468.911 246.282 468.911H213.746L208.901 459.681H227.822C228.438 459.681 228.976 459.45 229.438 458.989C229.899 458.527 230.13 457.989 230.13 457.374V403.839H188.133C185.21 403.839 182.826 402.839 180.98 400.84C178.98 398.993 177.98 396.609 177.98 393.686V359.535C177.98 356.766 178.98 354.382 180.98 352.382C182.826 350.382 185.21 349.382 188.133 349.382H298.202C301.124 349.382 303.509 350.382 305.355 352.382C307.355 354.382 308.355 356.766 308.355 359.535V393.686C308.355 396.609 307.355 398.993 305.355 400.84C303.509 402.839 301.124 403.839 298.202 403.839ZM204.286 361.15V392.071C204.286 392.686 204.516 393.225 204.978 393.686C205.439 394.302 205.978 394.609 206.593 394.609H279.741C280.357 394.609 280.895 394.302 281.357 393.686C281.972 393.225 282.28 392.686 282.28 392.071V361.15C282.28 360.535 281.972 359.996 281.357 359.535C280.895 359.073 280.357 358.843 279.741 358.843H206.593C205.978 358.843 205.439 359.073 204.978 359.535C204.516 359.996 204.286 360.535 204.286 361.15ZM318.277 328.384V337.844H168.058V328.384H230.13L226.669 315H252.743L256.435 328.384H318.277Z" stroke="#323233" stroke-width="0.142643"/>
<path fill-rule="evenodd" clip-rule="evenodd" d="M457.421 369.227L459.959 359.997C460.267 358.304 459.652 357.458 458.113 357.458H369.274C368.505 357.458 367.89 357.766 367.428 358.381C366.967 358.843 366.736 359.381 366.736 359.997V449.067C366.736 452.605 365.659 455.758 363.505 458.527C361.352 461.45 358.506 463.373 354.968 464.296L331.2 470.296V461.066L337.2 458.989C339.507 458.22 340.661 456.758 340.661 454.605V358.381C340.661 355.458 341.584 353.074 343.43 351.228C345.43 349.228 347.814 348.228 350.583 348.228H389.811V315H415.886V326.768H478.189V335.998H415.886V348.228H477.035C480.727 348.228 483.265 349.305 484.65 351.459C486.188 353.612 486.573 356.228 485.804 359.304L483.496 369.227H457.421ZM478.189 407.07H402.272C399.349 407.07 396.964 406.07 395.118 404.07C393.118 402.224 392.119 399.84 392.119 396.917V390.456L372.505 392.071V382.841L392.119 380.995V363.458H418.193V378.687L478.189 373.611V382.841L418.193 388.148V395.301C418.193 395.917 418.501 396.532 419.116 397.147C419.578 397.609 420.116 397.84 420.732 397.84H483.265L478.189 407.07ZM473.343 459.45H486.265L481.419 468.68H454.883C451.96 468.68 449.576 467.757 447.73 465.911C445.73 463.911 444.73 461.527 444.73 458.758V427.837C444.73 427.222 444.499 426.684 444.038 426.222C443.576 425.607 443.038 425.299 442.422 425.299H408.733C408.117 425.299 407.502 425.607 406.887 426.222C406.425 426.684 406.194 427.222 406.194 427.837V449.297C406.194 453.143 405.117 456.451 402.964 459.22C400.81 461.989 397.81 463.835 393.965 464.758L369.274 470.296V460.604L376.889 458.066C379.043 457.45 380.119 455.989 380.119 453.682V426.222C380.119 423.299 381.043 420.915 382.889 419.069C384.888 417.069 387.35 416.069 390.272 416.069H460.882C463.805 416.069 466.19 417.069 468.036 419.069C470.036 420.915 471.035 423.299 471.035 426.222V457.143C471.035 457.758 471.266 458.297 471.728 458.758C472.189 459.22 472.728 459.45 473.343 459.45Z" fill="#323233"/>
<path fill-rule="evenodd" clip-rule="evenodd" d="M457.421 369.227L459.959 359.997C460.267 358.304 459.652 357.458 458.113 357.458H369.274C368.505 357.458 367.89 357.766 367.428 358.381C366.967 358.843 366.736 359.381 366.736 359.997V449.067C366.736 452.605 365.659 455.758 363.505 458.527C361.352 461.45 358.506 463.373 354.968 464.296L331.2 470.296V461.066L337.2 458.989C339.507 458.22 340.661 456.758 340.661 454.605V358.381C340.661 355.458 341.584 353.074 343.43 351.228C345.43 349.228 347.814 348.228 350.583 348.228H389.811V315H415.886V326.768H478.189V335.998H415.886V348.228H477.035C480.727 348.228 483.265 349.305 484.65 351.459C486.188 353.612 486.573 356.228 485.804 359.304L483.496 369.227H457.421ZM478.189 407.07H402.272C399.349 407.07 396.964 406.07 395.118 404.07C393.118 402.224 392.119 399.84 392.119 396.917V390.456L372.505 392.071V382.841L392.119 380.995V363.458H418.193V378.687L478.189 373.611V382.841L418.193 388.148V395.301C418.193 395.917 418.501 396.532 419.116 397.147C419.578 397.609 420.116 397.84 420.732 397.84H483.265L478.189 407.07ZM473.343 459.45H486.265L481.419 468.68H454.883C451.96 468.68 449.576 467.757 447.73 465.911C445.73 463.911 444.73 461.527 444.73 458.758V427.837C444.73 427.222 444.499 426.684 444.038 426.222C443.576 425.607 443.038 425.299 442.422 425.299H408.733C408.117 425.299 407.502 425.607 406.887 426.222C406.425 426.684 406.194 427.222 406.194 427.837V449.297C406.194 453.143 405.117 456.451 402.964 459.22C400.81 461.989 397.81 463.835 393.965 464.758L369.274 470.296V460.604L376.889 458.066C379.043 457.45 380.119 455.989 380.119 453.682V426.222C380.119 423.299 381.043 420.915 382.889 419.069C384.888 417.069 387.35 416.069 390.272 416.069H460.882C463.805 416.069 466.19 417.069 468.036 419.069C470.036 420.915 471.035 423.299 471.035 426.222V457.143C471.035 457.758 471.266 458.297 471.728 458.758C472.189 459.22 472.728 459.45 473.343 459.45Z" stroke="#323233" stroke-width="0.142643"/>
<path fill-rule="evenodd" clip-rule="evenodd" d="M651.944 392.073H631.638V408.918H637.638C640.407 408.918 642.791 409.841 644.791 411.687C646.637 413.687 647.56 416.148 647.56 419.071V458.53C647.56 461.452 646.637 463.837 644.791 465.683C642.791 467.683 640.407 468.683 637.638 468.683H601.871C598.948 468.683 596.487 467.683 594.487 465.683C592.641 463.837 591.718 461.452 591.718 458.53V419.071C591.718 416.148 592.641 413.687 594.487 411.687C596.487 409.841 598.948 408.918 601.871 408.918H607.871V392.073H587.334V451.376C587.334 454.145 586.488 456.53 584.795 458.53C583.257 460.683 581.18 462.222 578.565 463.145L556.874 470.298V461.068L558.72 460.376C561.643 459.299 563.105 457.376 563.105 454.607V328.386C563.105 325.617 564.028 323.232 565.874 321.233C567.874 319.233 570.335 318.233 573.258 318.233H640.637C643.56 318.233 646.022 319.233 648.021 321.233C649.867 323.232 650.79 325.617 650.79 328.386V355.153C650.79 358.076 649.867 360.537 648.021 362.537C646.022 364.383 643.56 365.306 640.637 365.306H631.638V382.843H651.944V392.073ZM587.334 382.843H607.871V365.306H587.334V382.843ZM589.18 330.001V356.076H622.177C622.792 356.076 623.331 355.845 623.792 355.384C624.408 354.768 624.715 354.153 624.715 353.538V330.001C624.715 329.386 624.408 328.847 623.792 328.386C623.331 327.77 622.792 327.463 622.177 327.463H591.718C591.103 327.463 590.487 327.77 589.872 328.386C589.41 328.847 589.18 329.386 589.18 330.001ZM557.336 449.53V458.76L496.648 470.298V461.068L500.802 460.145V391.381H515.57V457.376L519.493 456.684V378.92H507.263C504.34 378.92 501.956 377.92 500.11 375.921C498.11 374.075 497.11 371.69 497.11 368.767V327.463C497.11 324.694 498.11 322.309 500.11 320.31C501.956 318.463 504.34 317.541 507.263 317.541H545.337C548.26 317.541 550.644 318.463 552.49 320.31C554.49 322.309 555.49 324.694 555.49 327.463V368.767C555.49 371.69 554.49 374.075 552.49 375.921C550.644 377.92 548.26 378.92 545.337 378.92H542.106V407.764H553.875V417.225H542.106V452.299L557.336 449.53ZM625.408 457.145V420.917C625.408 420.148 625.177 419.533 624.715 419.071C624.254 418.61 623.715 418.379 623.1 418.379H616.408C615.793 418.379 615.178 418.61 614.562 419.071C614.101 419.533 613.87 420.148 613.87 420.917V457.145C613.87 457.76 614.101 458.299 614.562 458.76C615.178 459.222 615.793 459.453 616.408 459.453H623.1C623.715 459.453 624.254 459.222 624.715 458.76C625.177 458.299 625.408 457.76 625.408 457.145ZM520.416 329.54V367.383C520.416 367.998 520.647 368.537 521.108 368.998C521.57 369.613 522.108 369.921 522.723 369.921H529.877C530.492 369.921 531.03 369.613 531.492 368.998C531.953 368.537 532.184 367.998 532.184 367.383V329.54C532.184 328.77 531.953 328.155 531.492 327.694C531.03 327.232 530.492 327.001 529.877 327.001H522.723C522.108 327.001 521.57 327.232 521.108 327.694C520.647 328.155 520.416 328.77 520.416 329.54Z" fill="#323233"/>
<path fill-rule="evenodd" clip-rule="evenodd" d="M651.944 392.073H631.638V408.918H637.638C640.407 408.918 642.791 409.841 644.791 411.687C646.637 413.687 647.56 416.148 647.56 419.071V458.53C647.56 461.452 646.637 463.837 644.791 465.683C642.791 467.683 640.407 468.683 637.638 468.683H601.871C598.948 468.683 596.487 467.683 594.487 465.683C592.641 463.837 591.718 461.452 591.718 458.53V419.071C591.718 416.148 592.641 413.687 594.487 411.687C596.487 409.841 598.948 408.918 601.871 408.918H607.871V392.073H587.334V451.376C587.334 454.145 586.488 456.53 584.795 458.53C583.257 460.683 581.18 462.222 578.565 463.145L556.874 470.298V461.068L558.72 460.376C561.643 459.299 563.105 457.376 563.105 454.607V328.386C563.105 325.617 564.028 323.232 565.874 321.233C567.874 319.233 570.335 318.233 573.258 318.233H640.637C643.56 318.233 646.022 319.233 648.021 321.233C649.867 323.232 650.79 325.617 650.79 328.386V355.153C650.79 358.076 649.867 360.537 648.021 362.537C646.022 364.383 643.56 365.306 640.637 365.306H631.638V382.843H651.944V392.073ZM587.334 382.843H607.871V365.306H587.334V382.843ZM589.18 330.001V356.076H622.177C622.792 356.076 623.331 355.845 623.792 355.384C624.408 354.768 624.715 354.153 624.715 353.538V330.001C624.715 329.386 624.408 328.847 623.792 328.386C623.331 327.77 622.792 327.463 622.177 327.463H591.718C591.103 327.463 590.487 327.77 589.872 328.386C589.41 328.847 589.18 329.386 589.18 330.001ZM557.336 449.53V458.76L496.648 470.298V461.068L500.802 460.145V391.381H515.57V457.376L519.493 456.684V378.92H507.263C504.34 378.92 501.956 377.92 500.11 375.921C498.11 374.075 497.11 371.69 497.11 368.767V327.463C497.11 324.694 498.11 322.309 500.11 320.31C501.956 318.463 504.34 317.541 507.263 317.541H545.337C548.26 317.541 550.644 318.463 552.49 320.31C554.49 322.309 555.49 324.694 555.49 327.463V368.767C555.49 371.69 554.49 374.075 552.49 375.921C550.644 377.92 548.26 378.92 545.337 378.92H542.106V407.764H553.875V417.225H542.106V452.299L557.336 449.53ZM625.408 457.145V420.917C625.408 420.148 625.177 419.533 624.715 419.071C624.254 418.61 623.715 418.379 623.1 418.379H616.408C615.793 418.379 615.178 418.61 614.562 419.071C614.101 419.533 613.87 420.148 613.87 420.917V457.145C613.87 457.76 614.101 458.299 614.562 458.76C615.178 459.222 615.793 459.453 616.408 459.453H623.1C623.715 459.453 624.254 459.222 624.715 458.76C625.177 458.299 625.408 457.76 625.408 457.145ZM520.416 329.54V367.383C520.416 367.998 520.647 368.537 521.108 368.998C521.57 369.613 522.108 369.921 522.723 369.921H529.877C530.492 369.921 531.03 369.613 531.492 368.998C531.953 368.537 532.184 367.998 532.184 367.383V329.54C532.184 328.77 531.953 328.155 531.492 327.694C531.03 327.232 530.492 327.001 529.877 327.001H522.723C522.108 327.001 521.57 327.232 521.108 327.694C520.647 328.155 520.416 328.77 520.416 329.54Z" stroke="#323233" stroke-width="0.142643"/>
<path d="M774.011 459.45H814.161L809.315 468.68H755.551C752.628 468.68 750.243 467.68 748.397 465.681C746.398 463.835 745.397 461.45 745.397 458.527V417.454L726.245 423.222V413.992L745.397 408.224V353.535H727.86L712.4 449.528C711.938 452.297 710.708 454.681 708.708 456.681C706.708 458.527 704.401 459.835 701.785 460.604L665.558 470.065V460.835L681.48 456.912C683.326 456.297 684.402 455.22 684.71 453.682L701.324 353.535H666.942V344.305H702.939L707.785 315H733.86L729.245 344.305H784.164C784.779 344.305 785.317 344.075 785.779 343.613C786.24 343.152 786.471 342.536 786.471 341.767V319.615H812.777V343.613C812.777 346.382 811.777 348.767 809.777 350.766C807.931 352.612 805.547 353.535 802.624 353.535H771.703V400.378L809.777 389.302V398.532L771.703 409.608V456.912C771.703 457.527 771.934 458.066 772.395 458.527C772.857 459.143 773.395 459.45 774.011 459.45Z" fill="#323233"/>
<path d="M774.011 459.45H814.161L809.315 468.68H755.551C752.628 468.68 750.243 467.68 748.397 465.681C746.398 463.835 745.397 461.45 745.397 458.527V417.454L726.245 423.222V413.992L745.397 408.224V353.535H727.86L712.4 449.528C711.938 452.297 710.708 454.681 708.708 456.681C706.708 458.527 704.401 459.835 701.785 460.604L665.558 470.065V460.835L681.48 456.912C683.326 456.297 684.402 455.22 684.71 453.682L701.324 353.535H666.942V344.305H702.939L707.785 315H733.86L729.245 344.305H784.164C784.779 344.305 785.317 344.075 785.779 343.613C786.24 343.152 786.471 342.536 786.471 341.767V319.615H812.777V343.613C812.777 346.382 811.777 348.767 809.777 350.766C807.931 352.612 805.547 353.535 802.624 353.535H771.703V400.378L809.777 389.302V398.532L771.703 409.608V456.912C771.703 457.527 771.934 458.066 772.395 458.527C772.857 459.143 773.395 459.45 774.011 459.45Z" stroke="#323233" stroke-width="0.142643"/>
<path fill-rule="evenodd" clip-rule="evenodd" d="M969.226 457.143H983.071V466.604H827.775V457.143H841.62V421.146C841.62 418.223 842.621 415.838 844.62 413.992C846.466 411.992 848.851 410.993 851.774 410.993H959.304C962.073 410.993 964.457 411.992 966.457 413.992C968.303 415.838 969.226 418.223 969.226 421.146V457.143ZM910.154 457.143V420.223H900.693V457.143H910.154ZM867.926 422.761V457.143H877.156V420.223H870.234C869.618 420.223 869.08 420.453 868.619 420.915C868.157 421.376 867.926 421.992 867.926 422.761ZM943.151 457.143V422.761C943.151 421.992 942.92 421.376 942.459 420.915C941.997 420.453 941.382 420.223 940.613 420.223H933.921V457.143H943.151ZM851.312 391.84V365.996H832.621V356.766H851.312V335.768C851.312 332.845 852.312 330.46 854.312 328.614C856.312 326.614 858.696 325.615 861.465 325.615H878.31L883.617 315H909.692L904.616 325.615H953.304C956.227 325.615 958.689 326.614 960.688 328.614C962.534 330.46 963.457 332.845 963.457 335.768V356.766H977.995V365.996H963.457V394.378C963.457 397.301 962.534 399.686 960.688 401.532C958.689 403.532 956.227 404.531 953.304 404.531H923.537L918.461 395.301H934.844C935.459 395.301 936.075 394.994 936.69 394.378C937.152 393.917 937.382 393.379 937.382 392.763V365.996H877.618V386.071C877.618 388.379 877.002 390.456 875.772 392.302C874.695 394.302 873.003 395.763 870.695 396.686L842.082 408.223V398.763L849.005 395.763C850.543 394.994 851.312 393.686 851.312 391.84ZM877.618 337.383V356.766H893.54L888.463 341.998H914.769L919.615 356.766H937.382V337.383C937.382 336.768 937.152 336.229 936.69 335.768C936.075 335.306 935.459 335.075 934.844 335.075H880.156C879.387 335.075 878.771 335.306 878.31 335.768C877.848 336.229 877.618 336.768 877.618 337.383ZM888.463 373.149H914.769L921.23 392.994H895.155L888.463 373.149Z" fill="#323233"/>
<path fill-rule="evenodd" clip-rule="evenodd" d="M969.226 457.143H983.071V466.604H827.775V457.143H841.62V421.146C841.62 418.223 842.621 415.838 844.62 413.992C846.466 411.992 848.851 410.993 851.774 410.993H959.304C962.073 410.993 964.457 411.992 966.457 413.992C968.303 415.838 969.226 418.223 969.226 421.146V457.143ZM910.154 457.143V420.223H900.693V457.143H910.154ZM867.926 422.761V457.143H877.156V420.223H870.234C869.618 420.223 869.08 420.453 868.619 420.915C868.157 421.376 867.926 421.992 867.926 422.761ZM943.151 457.143V422.761C943.151 421.992 942.92 421.376 942.459 420.915C941.997 420.453 941.382 420.223 940.613 420.223H933.921V457.143H943.151ZM851.312 391.84V365.996H832.621V356.766H851.312V335.768C851.312 332.845 852.312 330.46 854.312 328.614C856.312 326.614 858.696 325.615 861.465 325.615H878.31L883.617 315H909.692L904.616 325.615H953.304C956.227 325.615 958.689 326.614 960.688 328.614C962.534 330.46 963.457 332.845 963.457 335.768V356.766H977.995V365.996H963.457V394.378C963.457 397.301 962.534 399.686 960.688 401.532C958.689 403.532 956.227 404.531 953.304 404.531H923.537L918.461 395.301H934.844C935.459 395.301 936.075 394.994 936.69 394.378C937.152 393.917 937.382 393.379 937.382 392.763V365.996H877.618V386.071C877.618 388.379 877.002 390.456 875.772 392.302C874.695 394.302 873.003 395.763 870.695 396.686L842.082 408.223V398.763L849.005 395.763C850.543 394.994 851.312 393.686 851.312 391.84ZM877.618 337.383V356.766H893.54L888.463 341.998H914.769L919.615 356.766H937.382V337.383C937.382 336.768 937.152 336.229 936.69 335.768C936.075 335.306 935.459 335.075 934.844 335.075H880.156C879.387 335.075 878.771 335.306 878.31 335.768C877.848 336.229 877.618 336.768 877.618 337.383ZM888.463 373.149H914.769L921.23 392.994H895.155L888.463 373.149Z" stroke="#323233" stroke-width="0.142643"/>
<path fill-rule="evenodd" clip-rule="evenodd" d="M596.88 250.209C596.405 249.258 596.048 248.307 595.81 247.356L596.702 250.387C596.702 249.317 596.464 248.247 595.989 247.177C592.778 238.736 588.379 230.948 582.791 223.815C582.791 223.102 578.69 217.038 581.543 220.605L582.613 222.388L583.148 223.102C583.148 223.339 583.148 223.577 583.148 223.815V224.885L583.683 225.777L590.103 235.942V235.05C590.103 235.05 590.103 233.98 589.39 233.624L590.46 234.872H591.173C591.173 234.277 591.173 233.742 591.173 233.267V231.84H590.46V231.127C590.579 230.413 590.579 229.76 590.46 229.165V228.095L589.925 227.203H589.39V224.707H588.498V222.923C588.023 222.448 587.607 221.972 587.25 221.497V220.962L586.18 219.535L585.466 218.108V217.038C585.466 216.8 585.466 216.622 585.466 216.503L584.396 215.433L575.123 206.694C574.409 205.981 574.41 205.268 573.518 204.554L572.626 203.306L571.913 202.058C571.794 201.701 571.794 201.285 571.913 200.809L570.486 199.383C572.983 196.172 576.728 192.606 579.225 188.504H577.085C577.917 188.623 578.809 188.623 579.76 188.504L581.008 186.899C581.127 186.304 581.365 185.71 581.721 185.115L583.148 183.154C582.672 182.44 582.197 181.846 581.721 181.37C581.721 180.3 584.04 179.765 585.823 179.23L587.963 175.664C587.963 174.415 584.04 177.447 583.861 175.664C583.861 173.88 586.358 170.848 586.358 170.492C586.358 170.373 586.358 170.195 586.358 169.957C586.834 169.481 587.309 169.124 587.785 168.887C587.904 168.649 587.904 168.411 587.785 168.173C587.547 167.936 587.309 167.698 587.072 167.46L585.288 166.39H588.498C588.498 166.39 586.18 173.88 586.358 173.88C586.715 174.058 586.358 171.027 586.358 171.205C586.358 171.205 590.46 166.925 590.638 166.925L587.25 174.593C587.25 174.593 591.352 167.103 591.708 166.925V166.39C591.827 166.152 591.827 165.855 591.708 165.498H592.778L593.848 163.001C594.205 163.596 594.502 164.19 594.74 164.785C594.74 164.785 595.632 155.69 595.989 155.155C595.989 155.511 595.989 155.927 595.989 156.403C596.524 155.333 595.989 154.085 595.989 153.193C595.989 154.441 597.415 155.511 597.594 156.76C597.772 158.008 597.594 165.855 597.594 166.39V171.027L596.167 171.918V170.848L592.422 171.918V179.052C592.422 180.122 592.422 181.251 592.422 182.44C592.541 183.392 592.838 184.343 593.313 185.294V174.415C593.67 174.534 594.027 174.534 594.383 174.415H595.453C595.81 174.296 596.107 174.296 596.345 174.415C596.464 174.772 596.464 175.069 596.345 175.307V205.089C596.464 205.327 596.464 205.624 596.345 205.981C596.345 206.873 595.275 207.943 595.453 209.013C595.453 209.488 595.453 210.023 595.453 210.618C595.453 211.331 595.453 212.045 595.453 212.758L594.74 212.045C594.74 212.401 594.74 212.758 594.74 213.115C594.859 213.709 594.859 214.304 594.74 214.898V215.611C594.74 215.73 594.74 215.909 594.74 216.146V213.471C594.74 213.709 594.74 213.947 594.74 214.185C594.859 214.779 594.859 215.433 594.74 216.146V218.286C594.74 219 594.74 219.713 594.74 220.427H595.453V222.032C595.453 222.388 595.453 222.685 595.453 222.923C595.453 223.28 595.453 223.577 595.453 223.815L594.562 223.28V229.7C594.681 231.721 594.681 233.742 594.562 235.764V227.025C594.562 227.263 594.562 227.56 594.562 227.917C594.562 228.868 594.562 229.819 594.562 230.77C594.562 231.721 594.562 232.732 594.562 233.802C594.562 234.159 594.562 234.515 594.562 234.872V237.725C594.562 238.082 594.562 238.439 594.562 238.795H593.848V246.107V245.572C593.848 245.334 593.848 245.156 593.848 245.037V246.821C593.967 247.653 593.967 248.545 593.848 249.496V255.381V254.668V253.419V253.954C593.611 253.479 593.373 253.003 593.135 252.527C593.135 252.29 593.135 252.052 593.135 251.814L592.6 250.209V248.961C592.6 248.247 592.6 247.534 592.6 246.821C592.6 246.583 592.6 246.345 592.6 246.107V250.209L591.887 248.247H593.135L592.422 246.821V248.426C592.422 248.426 591.352 249.852 591.352 250.209C591.471 250.566 591.471 250.922 591.352 251.279L592.243 253.062V255.203H591.53V253.776L596.88 250.209ZM599.198 252.706V251.457V253.062V252.349V252.706ZM593.492 238.795C591.887 238.795 592.243 237.725 593.492 238.082H594.562L595.81 241.292L596.523 242.719C596.523 243.194 596.523 243.67 596.523 244.146L594.383 239.33L593.492 238.795ZM594.74 243.076V241.47V242.184C594.74 243.254 594.74 243.076 594.74 242.184V243.076ZM509.673 261.801H532.678H531.965H533.57C533.689 262.039 533.689 262.336 533.57 262.693V263.763C533.57 264.001 533.57 264.238 533.57 264.476H536.958V262.158H534.818L535.71 260.731H546.767L543.557 262.693H545.519L543.913 264.298C544.508 264.417 545.102 264.654 545.697 265.011H553.187L554.971 265.546H562.996C562.877 265.189 562.877 264.892 562.996 264.654C563.353 264.179 563.828 263.822 564.422 263.584H566.919C567.157 264.06 567.454 264.417 567.811 264.654H571.734C572.805 264.654 571.734 263.763 572.983 263.763H576.193L577.976 261.801L579.938 263.763H585.466L586.893 261.266V260.196C581.9 247.712 571.021 230.948 572.091 230.948C569.594 228.808 569.951 225.955 564.601 218.643V218.108L563.888 217.216C563.174 216.741 562.58 216.146 562.104 215.433L560.856 214.006C562.461 215.79 564.066 217.751 565.493 219.713L562.104 217.751C561.391 216.563 560.618 215.493 559.786 214.541L558.002 212.58L554.614 215.611H554.079L552.117 217.751L550.869 219C548.253 221.497 545.519 223.874 542.665 226.133L534.283 232.732L531.787 234.872L529.825 236.299L528.22 237.547L521.086 242.54L515.736 245.394L515.201 244.681C515.558 245.275 515.855 245.87 516.093 246.464C516.212 246.821 516.212 247.177 516.093 247.534H513.061C512.942 247.772 512.942 248.069 513.061 248.426C512.942 248.901 512.942 249.377 513.061 249.852L505.749 253.598C505.274 253.36 504.798 253.36 504.322 253.598L502.896 254.311C502.777 254.905 502.479 255.381 502.004 255.738C501.291 256.332 500.518 256.867 499.686 257.343L498.081 258.056H497.367L495.762 258.769L491.66 260.018L481.138 261.266C481.019 261.028 480.841 260.909 480.603 260.909C480.247 260.909 480.009 261.028 479.89 261.266H476.502L486.845 260.374H495.405C498.021 260.374 500.696 260.553 503.431 260.909H509.494L509.673 261.801ZM583.861 254.846L584.931 257.699L583.861 255.381V254.846ZM581.008 249.852C581.959 252.23 582.851 254.608 583.683 256.986C583.326 256.51 583.089 255.975 582.97 255.381V253.776V251.992C582.732 251.398 582.435 250.863 582.078 250.387L581.008 249.852ZM582.791 252.349V253.241V252.171V252.349ZM579.581 248.426V247.534C580.473 243.432 581.008 247.534 581.9 250.031L582.435 252.171L581.543 250.387L579.581 248.426ZM581.721 249.496C581.959 249.971 582.137 250.447 582.256 250.922C582.256 251.279 582.256 251.636 582.256 251.992V250.209L581.721 249.496ZM384.479 189.574C384.36 191.001 384.36 192.487 384.479 194.032C385.073 196.529 385.43 199.026 385.549 201.523C385.787 204.852 385.787 208.121 385.549 211.331C385.906 217.395 385.668 223.399 384.836 229.343V251.101C384.836 253.241 385.549 263.049 385.727 265.19H391.077C390.958 264.595 390.958 264.06 391.077 263.584H402.491L401.243 264.119H403.561H397.141H400.351C397.676 264.119 395.001 263.584 392.326 263.228H393.396L395.001 264.119H409.09H407.663L408.198 264.833H412.3H404.988H414.44L415.153 266.26H414.44L415.153 266.795H420.503H419.79H421.038H419.968L421.93 266.26H428.528L426.032 265.19C422.941 263.763 419.968 262.098 417.115 260.196C412.002 256.986 407.782 252.944 404.453 248.069C402.907 245.929 401.54 243.67 400.351 241.292C399.162 239.033 398.151 236.655 397.319 234.159C396.487 231.662 395.833 229.106 395.358 226.49C394.882 223.874 394.585 221.259 394.466 218.643C394.347 216.028 394.406 213.412 394.644 210.796C395.001 208.181 395.476 205.624 396.071 203.128C396.784 200.512 397.616 198.015 398.568 195.637C399.638 193.26 400.826 190.941 402.134 188.682L405.523 184.58H404.631C403.68 184.937 402.848 185.472 402.134 186.185H401.064C402.729 185.472 404.393 184.64 406.058 183.689L407.663 181.727H409.09C412.894 178.398 416.877 175.366 421.038 172.632L424.427 170.848C432.036 165.736 440.18 161.634 448.859 158.543C449.097 158.067 449.454 157.651 449.929 157.295C450.642 156.938 451.415 156.938 452.248 157.295H453.852C455.636 156.046 458.668 155.511 460.273 154.798C462.056 153.906 470.616 154.798 472.043 153.55C476.68 152.717 481.376 152.361 486.132 152.48C490.888 152.48 495.584 152.836 500.221 153.55C504.857 154.382 509.435 155.511 513.953 156.938C518.471 158.484 522.81 160.386 526.971 162.645C533.986 165.855 540.466 169.897 546.41 174.772C565.671 155.333 579.046 110.57 536.245 108.608C533.986 108.489 531.786 108.846 529.646 109.678V110.748C527.685 110.748 525.723 111.64 523.761 111.818H520.908V110.927H518.411L517.52 111.64L516.806 112.353L514.488 108.965H512.348L511.813 110.213H507.533L505.749 111.283L504.501 111.818H502.539C501.469 111.818 500.399 110.927 499.507 111.283L498.259 110.392C497.783 110.748 497.427 111.164 497.189 111.64C496.951 112.116 496.951 112.532 497.189 112.888H498.081C497.367 113.364 496.654 113.721 495.941 113.958H491.304C490.412 113.958 492.552 117.525 491.304 118.06C490.055 118.595 487.559 116.99 487.024 117.168H485.597L484.349 118.06H483.278H483.457H482.565L478.82 119.487H477.215C477.334 119.606 477.334 119.784 477.215 120.022C476.858 120.379 476.383 120.735 475.788 121.092C474.48 121.686 473.232 122.4 472.043 123.232H469.19L468.12 123.945L467.585 124.659L464.91 123.232L463.84 125.55H462.056C462.056 125.55 457.776 128.582 457.419 128.582C456.349 129.058 455.339 129.533 454.388 130.009L453.139 130.722H450.643C450.167 130.603 449.751 130.366 449.394 130.009H448.502L447.076 136.072C446.6 136.548 446.184 137.024 445.827 137.499C445.708 137.975 445.708 138.391 445.827 138.747H447.076C446.362 139.223 445.649 139.58 444.936 139.817H442.439C441.012 139.936 439.526 139.936 437.981 139.817H437.802L434.77 141.244C434.77 141.601 434.77 141.898 434.77 142.136L433.522 143.028H430.49C426.745 144.811 423 146.416 419.612 148.021C412.478 149.567 405.285 150.339 398.033 150.339C395.714 151.41 396.963 150.339 394.466 150.339L390.542 152.301C389.353 152.777 388.283 153.49 387.332 154.441H386.441C386.441 160.505 386.976 166.568 387.511 172.632L384.836 166.39L384.3 167.282C384.419 167.519 384.419 167.817 384.3 168.173V168.887V168.352V177.804C384.3 179.944 385.192 182.084 385.371 184.224C385.49 185.175 385.49 186.126 385.371 187.077V187.612L384.479 189.574ZM573.161 233.624C574.588 234.337 575.123 237.369 576.193 238.795C575.301 237.369 574.588 235.942 573.696 234.515L573.161 233.624ZM566.919 223.637L567.633 224.528L566.741 223.28L566.919 223.637ZM564.422 220.427L565.314 221.497L566.028 222.923L563.709 219.713L564.422 220.427ZM563.709 220.427V219.713L564.422 220.605L563.709 220.427ZM534.818 191.001L530.538 187.612L524.475 185.294C518.411 181.965 512.05 179.349 505.392 177.447C498.734 175.664 491.958 174.653 485.062 174.415C482.684 174.296 480.306 174.296 477.928 174.415C472.756 175.485 467.941 176.377 463.305 177.625C454.388 179.765 446.362 183.689 439.229 189.396C435.424 192.487 432.214 196.054 429.598 200.096C426.864 204.138 424.902 208.537 423.713 213.293C423.357 214.125 423.06 215.017 422.822 215.968C422.584 217.157 422.584 218.346 422.822 219.535C422.941 220.724 423.357 221.853 424.07 222.923V221.318C423.951 220.724 423.951 220.129 424.07 219.535C424.07 217.87 424.367 216.206 424.962 214.541V214.006C424.962 212.936 426.032 211.866 426.567 210.796L427.459 213.65C427.459 214.006 427.459 214.304 427.459 214.541C428.172 216.563 429.064 218.405 430.134 220.07C431.204 221.734 432.511 223.28 434.057 224.707C435.603 226.014 437.267 227.144 439.051 228.095C440.834 229.046 442.677 229.76 444.579 230.235C451.237 231.543 457.895 231.543 464.553 230.235C472.637 227.976 480.485 225.004 488.094 221.318C500.458 216.444 511.931 209.905 522.513 201.701H523.405L535.353 191.001H534.818ZM530.895 187.434L531.965 186.721C528.041 184.343 523.94 182.322 519.659 180.657L518.411 179.944L515.023 178.874H513.953L519.659 181.905L525.901 184.937L531.965 188.147L530.895 187.434ZM384.3 90.9527C393.693 82.1546 403.739 74.1889 414.44 67.0553H415.51V65.807L416.58 64.9153H417.828L419.968 63.3102L420.86 62.7752H423.892L425.318 61.7052L426.032 60.9918C426.269 60.6351 426.448 60.219 426.567 59.7434C426.805 59.3868 426.805 59.0301 426.567 58.6734H427.459L430.847 56.7117H434.592C434.592 56.4739 434.592 56.2361 434.592 55.9983L439.051 54.215H440.477L439.942 55.82C428.053 63.3102 416.758 71.5732 406.058 80.6091C402.134 83.9381 398.508 87.5643 395.179 91.4877C392.683 94.1628 388.224 98.4429 384.122 103.08V90.9527H384.3ZM383.766 147.843V149.091V148.021V147.843ZM385.014 230.057V234.515V230.235V230.057ZM594.205 244.681C591.708 236.299 591.887 236.834 594.205 245.751V244.681ZM597.237 248.782V247.891V248.247V248.782ZM599.198 228.095V228.987V228.273V228.095ZM595.632 27.4642V29.0692C595.632 29.6042 594.74 31.0309 594.562 32.1009L593.67 31.0309V32.9926H594.205C594.205 33.8249 594.205 34.5977 594.205 35.311C594.086 36.1433 594.086 36.9756 594.205 37.8078C594.205 37.57 594.205 37.3322 594.205 37.0944C594.681 36.8566 595.097 36.8566 595.453 37.0944L596.167 37.9861V41.5529C596.167 41.1962 596.167 40.8396 596.167 40.4829C596.286 40.2451 596.286 40.0073 596.167 39.7695C596.048 39.4128 595.751 39.2345 595.275 39.2345C595.275 39.5912 595.275 39.8884 595.275 40.1262V42.8013V40.8396V42.4446C595.275 42.5635 595.275 42.7418 595.275 42.9796C595.275 43.3363 595.275 43.7524 595.275 44.228C595.275 44.7035 595.275 45.2386 595.275 45.833C595.394 46.9031 595.394 47.9731 595.275 49.0431C595.394 49.3998 595.394 49.697 595.275 49.9348V50.6482C595.394 51.1237 595.394 51.5993 595.275 52.0749L595.989 52.7882V54.9283L595.097 55.82C595.335 56.0578 595.513 56.355 595.632 56.7117C595.632 56.9495 595.632 57.1873 595.632 57.4251V58.6734L594.919 59.3868V57.7817C594.919 58.0195 594.919 58.2573 594.919 58.4951C594.919 59.0895 594.919 59.684 594.919 60.2785V61.3485C594.919 61.7052 594.919 62.0618 594.919 62.4185C594.919 63.013 594.919 63.548 594.919 64.0236H595.632V67.2337L594.919 68.482C594.205 69.7304 594.919 70.9788 594.027 72.4055C593.135 73.8322 595.632 73.8322 595.453 74.7239C595.335 75.5561 595.335 76.3884 595.453 77.2206C595.453 76.9828 595.453 76.7451 595.453 76.5073C595.929 76.5073 596.286 76.6856 596.523 77.0423C596.88 77.6368 597.118 78.2312 597.237 78.8257C597.356 79.1824 597.356 79.5985 597.237 80.074C597.356 80.4307 597.356 80.8468 597.237 81.3224C596.88 81.4413 596.523 81.6791 596.167 82.0358C595.81 82.2735 595.572 82.6302 595.453 83.1058C595.453 83.4625 595.453 83.8786 595.453 84.3542C595.453 84.8297 595.453 85.3648 595.453 85.9592C595.572 87.0293 595.572 88.0993 595.453 89.1693C595.572 89.6449 595.572 90.1204 595.453 90.596C595.335 91.1905 595.097 91.6661 594.74 92.0227L596.345 94.1628L594.027 95.9462C594.027 96.184 594.027 96.4812 594.027 96.8379C594.027 97.1946 594.027 97.6107 594.027 98.0862C594.027 98.5618 594.027 99.0374 594.027 99.513C593.789 99.9885 593.551 100.464 593.313 100.94C593.432 101.177 593.432 101.415 593.313 101.653C592.719 100.226 592.005 98.7996 591.173 97.3729C589.509 94.8761 587.666 92.5578 585.645 90.4177C584.931 89.4666 584.159 88.5154 583.327 87.5643C577.501 83.1652 571.08 79.8957 564.066 77.7556C556.576 75.14 548.848 73.6539 540.882 73.2972H538.385C533.035 73.4161 527.685 73.8916 522.335 74.7239L518.768 75.6156H517.163L515.379 76.6856L513.239 77.5773H511.278L517.163 75.0806C514.131 75.0806 508.603 77.2206 506.819 77.2206C501.469 78.6473 495.94 80.074 490.947 81.6791L485.419 83.4625H486.489L488.629 82.7491H487.38H487.915H486.845L485.597 83.9975H482.208L478.463 85.7809L471.33 88.991L466.515 90.9527C465.682 90.9527 464.85 90.9527 464.018 90.9527C464.018 91.0716 464.018 91.2499 464.018 91.4877L462.769 92.0227L459.559 93.0928L457.954 94.3411H455.279H455.993L453.496 95.4112L444.757 99.1563H439.764L438.515 99.8696C438.634 100.345 438.634 100.88 438.515 101.475L436.554 102.366H435.305C433.879 102.247 432.393 102.247 430.847 102.366H428.707C427.875 102.604 427.102 102.961 426.389 103.436H427.28C427.518 103.912 427.518 104.328 427.28 104.685V105.398L423.892 109.322H420.86L419.433 109.857C418.542 109.857 422.643 108.965 421.573 109.857H418.363L417.828 111.105H416.045L414.44 111.462C414.321 111.699 414.143 111.937 413.905 112.175L412.835 112.888H408.198C399.994 110.57 398.211 102.01 407.306 94.1628C417.888 85.9592 429.42 79.5985 441.904 75.0806L445.827 73.8322L450.464 71.8705L448.502 72.5838L447.076 72.7622H446.184L452.961 69.7304L450.107 71.3354H452.961L455.814 70.0871L458.668 68.8387H461.521C463.067 67.6498 464.731 66.6392 466.515 65.807H467.941H467.05L473.47 63.8452L470.438 64.9153L469.368 65.6286H471.151L474.005 64.5586C474.005 64.4397 474.005 64.2614 474.005 64.0236L482.387 61.7052L477.215 63.6669L484.705 61.7052H487.202C507.354 57.2467 548.729 44.228 548.907 57.2467L560.677 45.4763C559.786 42.9796 555.327 42.8013 544.984 42.9796C540.228 42.9796 535.591 43.3957 531.073 44.228C523.226 45.298 515.558 47.0814 507.889 48.3298C501.826 49.3998 503.787 44.4063 507.889 40.3045C512.169 35.5488 517.282 31.9226 523.226 29.4259C541.595 23.5407 565.493 13.7321 556.754 5.70686C555.506 4.63683 556.754 3.74512 554.614 3.2101H558.002H560.321V5.52851C560.202 6.83632 559.905 8.14413 559.429 9.45195L560.321 10.3436C560.44 7.9658 560.678 5.64741 561.034 3.38845H564.958L566.206 2.67508L567.454 3.2101H569.594V5.17184C569.475 6.36076 569.475 7.54968 569.594 8.73861C569.475 9.45196 569.475 10.1059 569.594 10.7003C569.832 11.2948 570.07 11.8298 570.308 12.3054C570.07 13.0187 569.654 13.6726 569.059 14.2671C569.059 14.5049 569.059 14.8021 569.059 15.1588C568.941 15.7532 568.941 16.3477 569.059 16.9422L568.524 19.4389V19.9739C568.524 19.7362 568.524 19.5578 568.524 19.4389V18.9039C568.168 31.7443 567.157 44.5847 565.493 57.4251L566.384 58.6734C568.881 40.4829 569.238 21.9356 570.664 3.56677H579.046V4.81516C579.165 5.7663 579.462 6.71743 579.938 7.66857V4.10179H580.83C580.83 4.33958 580.83 4.57738 580.83 4.81516V6.95522V5.70686V3.74512H582.97C582.97 4.45848 582.97 5.23128 582.97 6.06353C583.089 6.77688 583.267 7.43077 583.505 8.02524C583.624 8.26302 583.742 8.50082 583.861 8.73861C583.861 8.97639 583.98 9.21417 584.218 9.45195C584.337 9.68974 584.515 9.86808 584.753 9.98697C584.991 10.1059 585.229 10.2248 585.466 10.3436C585.704 10.4625 585.942 10.522 586.18 10.522C586.418 10.6409 586.655 10.7003 586.893 10.7003C587.131 10.7003 587.369 10.6409 587.606 10.522C587.963 10.4031 588.201 10.2842 588.32 10.1653V8.38194C588.201 7.54969 588.201 6.71743 588.32 5.88518V4.28014L590.282 3.74512V11.7704C590.163 13.1971 590.163 14.6238 590.282 16.0505C590.282 13.0187 590.282 9.98696 590.995 7.13354C590.876 9.03582 590.876 10.9381 590.995 12.8404C591.114 13.6726 591.114 14.5643 590.995 15.5155C591.114 15.8722 591.114 16.2288 590.995 16.5855C590.876 16.8233 590.638 17.0611 590.282 17.2989L589.568 16.4072C589.806 18.9039 589.806 21.4601 589.568 24.0757C589.331 25.1457 589.331 26.2752 589.568 27.4642C589.449 28.0586 589.449 28.6531 589.568 29.2475C589.687 29.7231 589.925 30.1987 590.282 30.6743C589.925 31.3876 589.509 31.9821 589.033 32.4576C589.033 32.6954 589.033 32.9927 589.033 33.3493C589.033 33.8249 589.033 34.3599 589.033 34.9544L588.32 37.4511V36.9161C589.033 48.9242 589.033 60.8729 588.32 72.7622L589.212 73.8322C591.53 57.0684 590.638 40.1262 591.887 23.184V27.2858C591.887 27.048 591.887 26.8103 591.887 26.5725C591.887 26.2158 591.887 25.8591 591.887 25.5024C592.006 24.5513 592.006 23.6002 591.887 22.649C591.768 21.1034 591.53 19.5578 591.173 18.0122C591.173 15.5155 591.47 13.0187 592.065 10.522V12.4837C592.184 11.1759 592.422 9.92753 592.778 8.73861H594.74V11.4137L593.67 12.127V13.1971H594.562V17.1205L593.67 16.0505C593.194 17.2394 592.6 18.3689 591.887 19.4389V20.1523C591.887 20.5089 591.887 20.8062 591.887 21.044C591.887 21.5195 591.887 21.9356 591.887 22.2923C591.887 22.7679 591.887 23.2435 591.887 23.719C592.362 23.6001 592.838 23.6001 593.313 23.719C593.432 23.8379 593.432 24.0163 593.313 24.2541V27.1075L595.632 27.4642ZM597.237 78.6473V79.539C597.237 79.8957 597.237 80.2524 597.237 80.6091V79.004V78.6473ZM596.345 249.674C596.345 250.387 596.345 251.041 596.345 251.636V249.674ZM595.453 243.254V242.54C595.453 242.065 595.453 241.589 595.453 241.114V243.076V243.254ZM596.345 212.58C596.345 212.223 596.345 211.866 596.345 211.51V212.58ZM480.96 264.833H462.056C461.937 264.595 461.937 264.357 462.056 264.119H465.266C465.266 263.763 465.266 263.406 465.266 263.049C465.266 262.336 465.266 261.682 465.266 261.088V262.514H465.98V263.049H468.12L470.616 262.158H483.278C487.38 262.158 491.304 262.158 495.405 261.444H481.317L480.96 264.833ZM519.481 265.725H515.736H520.551H519.838H519.481ZM531.787 265.725H536.78H525.545L531.608 265.19L531.787 265.725ZM552.296 265.725H547.837H552.83H552.296ZM438.515 2.31841H447.967L448.859 3.74512H447.254L448.502 7.66857H456.171C457.36 7.78746 458.549 7.78746 459.738 7.66857C460.57 7.54967 461.402 7.25244 462.235 6.77687L450.643 6.06353C450.761 5.70685 450.761 5.35016 450.643 4.99349V3.92347C450.524 3.56679 450.524 3.21011 450.643 2.85343H452.248H451.534H452.961C455.101 3.09121 457.181 3.09121 459.203 2.85343H473.827L470.438 2.49676H486.132H474.54H480.603C482.624 2.37786 484.646 2.37786 486.667 2.49676C486.548 2.61565 486.548 2.79399 486.667 3.03178H534.462L538.207 4.10179L539.277 3.2101H536.423H544.27L541.952 4.28014C541.06 4.81516 541.952 6.42019 540.882 8.02524C538.385 10.0464 535.769 11.8298 533.035 13.3754C530.3 14.921 527.447 16.2288 524.475 17.2989C521.502 18.3689 518.411 19.2011 515.201 19.7956C512.11 20.3901 509.019 20.6873 505.928 20.6873C496.119 20.6873 492.017 17.2989 485.597 17.2989C470.973 17.1205 458.133 21.9357 434.949 40.4829C417.234 53.9177 400.411 68.3631 384.479 83.8191C384.479 83.1058 384.479 82.3924 384.479 81.6791C384.479 81.2035 384.479 80.6685 384.479 80.074C384.479 79.3607 384.479 78.6473 384.479 77.934C384.122 77.4584 383.884 76.9234 383.766 76.3289C383.766 75.9722 383.766 75.675 383.766 75.4372V74.7239V70.2654V67.7687V69.9088C383.647 69.671 383.647 69.3737 383.766 69.0171C383.647 68.5415 383.647 68.0065 383.766 67.412C383.647 66.6986 383.647 65.9853 383.766 65.2719C383.647 64.4397 383.647 63.6075 383.766 62.7752C383.766 62.7752 385.192 61.8835 385.192 61.5268C385.192 60.6946 385.192 59.8623 385.192 59.0301C385.192 58.6734 385.192 58.3167 385.192 57.96C385.192 57.7223 385.192 57.425 385.192 57.0684C385.192 56.8306 385.192 56.5928 385.192 56.355V55.82L384.836 54.5716L385.549 53.3233C385.549 52.9666 385.549 52.6693 385.549 52.4316C385.549 52.0749 385.549 51.7182 385.549 51.3615V49.3998V48.5081C385.549 48.1514 385.549 47.8542 385.549 47.6164C385.549 47.3786 385.549 47.1408 385.549 46.9031V46.368C385.549 46.0114 385.549 45.7141 385.549 45.4763V44.4063C385.43 44.1685 385.371 43.9307 385.371 43.693C385.371 43.2174 385.371 42.6824 385.371 42.0879C385.371 41.6124 385.371 41.1368 385.371 40.6612V36.9161C385.371 36.6783 385.371 36.3811 385.371 36.0244C385.371 35.7866 385.371 35.5488 385.371 35.311V32.8143C385.133 32.2199 384.895 31.5659 384.657 30.8526V31.2093L384.122 32.8143V30.4959C384.122 30.0203 384.122 29.6042 384.122 29.2475V37.0944C384.003 39.3534 383.647 41.5529 383.052 43.693V40.3045V47.4381C383.052 47.9136 383.052 48.3892 383.052 48.8648C383.052 49.2215 383.052 49.5781 383.052 49.9348C383.052 50.4104 383.052 50.886 383.052 51.3615C383.052 51.4804 383.052 51.6588 383.052 51.8965C382.933 52.7288 382.814 53.6205 382.696 54.5716C382.696 55.4039 382.696 56.1767 382.696 56.89V41.9096V31.0309H382.16V25.1458C382.042 24.7891 382.042 24.4324 382.16 24.0757V23.184C382.16 23.0057 382.696 21.9357 382.696 21.9357C382.814 21.9357 382.993 21.9357 383.23 21.9357V19.6172C383.23 19.3795 383.23 19.2011 383.23 19.0823V17.4772H382.16V13.7321C382.042 13.1376 382.042 12.5432 382.16 11.9487C382.042 11.7109 382.042 11.4137 382.16 11.057H382.874C382.874 9.39252 382.874 7.66857 382.874 5.88518C382.874 5.88518 383.23 5.35018 383.23 4.81516L383.944 4.63681H386.084C386.084 7.13355 386.084 9.63029 385.371 12.127V9.45195C385.252 10.0464 385.133 10.5814 385.014 11.057V15.1588C385.014 15.3966 385.014 15.6344 385.014 15.8722V13.7321L385.727 14.8021V9.09528V6.4202C385.608 5.70685 385.608 5.05293 385.727 4.45846H387.332C388.64 4.33957 390.007 4.33957 391.434 4.45846C391.315 4.69625 391.315 4.93405 391.434 5.17184C392.028 5.40962 392.623 5.58796 393.217 5.70686C394.169 5.82575 395.12 6.06352 396.071 6.4202H401.064L403.739 4.81516L405.701 6.77687L406.771 6.06353H415.688C416.164 5.82574 416.461 5.46906 416.58 4.99349H419.076C419.671 5.23127 420.206 5.5285 420.682 5.88518C420.919 6.36075 420.919 6.77687 420.682 7.13354H419.968C420.8 7.25244 421.633 7.25244 422.465 7.13354H424.783C426.091 7.13354 427.399 7.01466 428.707 6.77687L430.312 6.06353H432.095C432.214 6.5391 432.214 7.0741 432.095 7.66857H434.592L436.375 7.84691H437.267C438.099 7.01467 439.05 6.30132 440.121 5.70686L438.515 4.28014H440.477L437.267 2.49676L438.515 2.31841ZM384.479 24.2541C384.479 24.0163 384.479 23.7785 384.479 23.5407V26.9291L385.014 26.0374V26.9291L386.441 26.0374V21.4006V19.0823C386.441 18.4878 386.441 17.8339 386.441 17.1205V24.4324L384.479 24.2541ZM384.479 17.2989V19.9739C384.479 19.7362 384.479 19.5578 384.479 19.4389V17.4772V17.2989ZM384.479 173.167V179.23C384.36 181.251 384.36 183.273 384.479 185.294C384.479 184.343 384.479 183.451 384.479 182.619V181.014L385.014 181.905C385.014 182.381 385.014 182.916 385.014 183.51C385.014 184.699 385.014 185.888 385.014 187.077C384.895 188.385 384.895 189.693 385.014 191.001C385.133 192.19 385.489 193.319 386.084 194.389C386.322 191.655 386.322 188.92 386.084 186.185C385.846 183.451 385.489 180.776 385.014 178.16L383.409 180.479V179.765V173.345L384.479 173.167ZM393.574 152.123H390.721C387.511 152.123 387.689 149.091 384.479 147.843V153.193L383.587 149.269C383.587 149.864 383.587 150.399 383.587 150.874C383.587 151.469 383.587 152.063 383.587 152.658C383.587 153.966 383.587 155.274 383.587 156.581V162.466C383.587 163.893 383.587 165.498 384.479 166.925L385.192 167.46C385.311 166.033 385.311 164.607 385.192 163.18C385.192 162.704 385.192 162.169 385.192 161.575V160.683C385.311 162.466 385.311 164.19 385.192 165.855C385.073 165.142 385.073 164.428 385.192 163.715V161.396V159.078C385.192 158.84 385.192 158.543 385.192 158.186C385.192 157.949 385.192 157.711 385.192 157.473L385.727 155.69V159.791L386.262 159.078C386.381 158.602 386.381 158.127 386.262 157.651C386.5 156.581 386.5 155.511 386.262 154.441C386.262 153.371 386.262 152.301 386.262 151.231C386.262 150.756 386.262 150.28 386.262 149.804C386.5 149.448 386.738 149.151 386.976 148.913C386.976 151.053 387.689 153.193 387.689 155.511C389.829 154.56 391.791 153.431 393.574 152.123ZM526.793 105.755L522.335 106.29L520.908 107.003L526.615 105.755H526.793ZM403.918 265.011H402.491H403.739H403.918ZM493.444 118.774L489.342 119.487C489.342 119.487 486.489 118.595 486.667 118.774C486.845 118.952 489.699 119.844 489.877 119.844L492.195 118.952L493.622 118.239L493.444 118.774ZM577.976 241.827V240.757L578.868 241.649L577.798 239.152V239.687C577.917 239.925 577.917 240.163 577.798 240.4L577.976 241.827ZM590.638 2.67508L588.855 2.14008H590.103L590.638 2.67508ZM599.734 108.787V115.207C599.377 113.542 598.961 111.818 598.485 110.035L599.377 109.322V110.392C599.496 110.035 599.496 109.678 599.377 109.322L599.734 108.787ZM595.632 2.49676L596.167 3.56677V4.99349C595.929 4.99349 595.691 4.99349 595.453 4.99349V2.14008L595.632 2.49676ZM428.172 0H429.955L439.764 0.713371H431.56C429.182 0.594478 426.864 0.356677 424.605 0H428.172ZM467.05 1.60506H457.954H468.12L466.693 1.07004L467.05 1.60506ZM456.171 2.14008H453.674H456.528H456.171ZM382.517 25.3241V27.4642C382.517 27.1075 382.517 26.8103 382.517 26.5725V24.7891C382.517 25.0269 382.517 25.3241 382.517 25.6808V25.3241ZM448.324 1.78339H443.509V1.24839H449.037L447.611 1.60506L448.324 1.78339ZM387.689 197.599C387.808 198.313 387.808 198.966 387.689 199.561C387.689 199.918 387.689 200.274 387.689 200.631L388.581 201.166C388.699 200.928 388.699 200.69 388.581 200.453C388.699 199.977 388.699 199.442 388.581 198.848C388.699 198.372 388.699 197.896 388.581 197.421L387.689 197.599ZM388.759 206.516C388.521 209.845 388.521 213.174 388.759 216.503C388.878 219.713 389.294 222.864 390.007 225.955C390.483 224.528 390.721 223.102 390.721 221.675C390.84 220.129 390.84 218.584 390.721 217.038C390.007 213.59 389.472 210.083 389.116 206.516H388.759ZM390.364 228.273C390.126 231.959 390.423 235.585 391.256 239.152C390.423 239.271 389.591 239.271 388.759 239.152C388.283 238.795 387.927 238.379 387.689 237.904C387.57 237.547 387.57 237.25 387.689 237.012C387.57 236.774 387.57 236.536 387.689 236.299C387.57 235.704 387.57 235.11 387.689 234.515C388.046 233.445 388.521 232.375 389.116 231.305L389.829 230.057L390.364 228.273ZM525.901 264.476H524.831H529.29H525.901ZM584.396 257.164V258.591V257.521C584.396 257.283 584.396 257.105 584.396 256.986V257.164ZM485.419 8.38194C480.663 8.02526 475.967 7.37134 471.33 6.4202H475.075C475.075 6.18242 475.075 6.00407 475.075 5.88518C474.243 6.00407 473.351 6.00407 472.4 5.88518H465.266L468.833 6.77687L466.871 7.49024C469.903 7.49024 472.935 7.49023 476.145 8.20359H480.425C481.733 8.32248 482.981 8.67917 484.17 9.27363L485.24 8.73861L485.419 8.38194ZM462.235 4.10179H457.241H458.133L458.668 5.17184H462.056L462.235 4.10179ZM593.67 52.6099V52.0749V57.7817C593.789 56.9495 593.967 56.1172 594.205 55.285C594.205 54.8094 594.205 54.3933 594.205 54.0366C594.324 53.561 594.324 53.0855 594.205 52.6099H593.67ZM594.205 50.2915C594.205 46.1897 595.275 42.2662 594.919 38.3428C594.919 40.1262 594.027 42.0879 593.848 43.8713C593.729 45.0602 593.729 46.1897 593.848 47.2597C593.729 47.8542 593.729 48.4487 593.848 49.0431C593.729 49.3998 593.729 49.8159 593.848 50.2915H594.205ZM581.721 23.3624C581.721 20.6873 582.791 17.8339 583.327 14.9805V16.2288C583.327 16.4666 583.327 16.7044 583.327 16.9422V18.3689H583.861C583.742 17.6555 583.742 16.8827 583.861 16.0505V13.5537C583.98 12.7215 583.98 11.8893 583.861 11.057C583.98 10.7003 583.98 10.2842 583.861 9.80862C583.98 9.45195 583.98 9.09528 583.861 8.73861L583.148 12.127L582.435 10.8787V14.2671C582.435 14.5049 582.435 14.8021 582.435 15.1588C582.435 15.5155 582.435 15.9316 582.435 16.4072V19.2606C582.554 20.5684 582.554 21.9357 582.435 23.3624C582.435 23.719 582.435 24.0163 582.435 24.2541C582.435 24.4918 582.435 24.7891 582.435 25.1458C582.554 25.6213 582.554 26.0969 582.435 26.5725L583.148 27.2858V29.4259C583.148 29.9014 583.148 30.3176 583.148 30.6743C583.148 31.0309 583.148 31.3876 583.148 31.7443C583.148 31.6254 583.148 31.447 583.148 31.2093C583.148 30.9715 583.148 30.6742 583.148 30.3176C583.267 29.6042 583.267 28.8314 583.148 27.9992C583.029 26.0969 583.029 24.2541 583.148 22.4707L581.721 23.3624ZM483.992 83.8191L481.138 84.7108L483.278 83.4625L483.992 83.8191ZM595.632 53.3233C595.632 53.0855 595.632 52.7882 595.632 52.4316C595.632 52.1938 595.632 51.8965 595.632 51.5399V49.0431V46.5464C595.513 45.7141 595.513 44.8819 595.632 44.0497C595.632 44.2874 595.632 44.5252 595.632 44.763V53.3233ZM585.466 8.02524V7.49024C585.466 7.72803 585.466 7.9658 585.466 8.20359C585.466 8.32248 585.466 8.50082 585.466 8.73861V8.02524ZM591.53 81.5008C591.411 81.1441 591.411 80.7279 591.53 80.2524V79.004C591.53 78.6473 591.53 78.2907 591.53 77.934C591.53 77.4584 591.53 76.9828 591.53 76.5073L590.46 80.6091L591.173 81.5008H591.53ZM592.957 205.624C593.432 201.225 594.086 196.826 594.919 192.427V193.141C595.037 193.379 595.037 193.616 594.919 193.854V195.816H595.632C595.513 194.984 595.513 194.151 595.632 193.319V190.822C595.632 189.99 595.632 189.158 595.632 188.326C595.632 187.969 595.632 187.612 595.632 187.256C595.632 186.899 595.632 186.542 595.632 186.185L594.919 189.396L593.135 187.612V196.351C593.254 197.659 593.254 199.026 593.135 200.453C593.016 201.641 592.719 202.771 592.243 203.841L592.957 204.733V205.624ZM596.523 183.867V182.619V180.657V180.122C596.523 179.884 596.523 179.646 596.523 179.409C596.523 179.646 596.523 179.944 596.523 180.3C596.523 180.538 596.523 180.835 596.523 181.192C596.523 181.43 596.523 181.668 596.523 181.905V184.045V183.867ZM596.523 185.115V184.58C596.523 184.818 596.523 184.997 596.523 185.115C596.523 185.353 596.523 185.532 596.523 185.65V185.115ZM568.881 67.2337C568.881 66.7581 568.881 66.2825 568.881 65.807V64.3802C568.881 64.0236 568.881 63.6075 568.881 63.1319C569 62.6563 569 62.1807 568.881 61.7052L567.811 65.6286L568.703 66.6987L568.881 67.2337ZM578.155 9.45195L577.085 8.38194V11.2353C577.204 11.7109 577.204 12.1865 577.085 12.6621C576.966 13.0187 576.787 13.316 576.55 13.5537L575.48 12.4837V14.4454H576.728C577.085 14.3265 577.382 14.0888 577.62 13.7321C578.095 12.3054 578.274 10.8787 578.155 9.45195ZM575.658 34.0627C575.658 29.6042 576.728 25.5024 576.371 21.2223C576.371 23.184 575.479 25.1458 575.123 27.1075C575.004 28.4153 575.004 29.6637 575.123 30.8526C575.123 31.447 575.123 32.0415 575.123 32.636C575.123 33.1115 575.123 33.5871 575.123 34.0627H575.658ZM575.123 36.5594L574.588 35.8461V42.0879C574.707 41.1368 574.885 40.2451 575.123 39.4128C575.242 38.9373 575.242 38.4617 575.123 37.9861C575.242 37.5106 575.242 37.035 575.123 36.5594ZM557.467 258.413H555.684L546.054 259.661H554.257C556.516 259.542 558.775 259.304 561.034 258.948L557.467 258.413ZM537.493 261.088H542.309H536.067H537.672H537.493ZM519.838 108.965L518.233 109.678L508.781 112.353L516.45 109.5C518.352 109.024 520.254 108.727 522.156 108.608H519.838V108.965ZM500.399 112.353C501.469 112.353 503.074 113.245 504.322 112.888H505.214C505.214 113.126 505.214 113.304 505.214 113.423C503.966 113.423 502.539 112.532 501.291 113.423L499.151 114.137L500.577 113.245L500.399 112.353ZM457.598 68.8387H458.133L459.916 68.1254L461.878 67.5903L463.305 66.6987L459.381 68.1254L455.636 69.7304L457.598 68.8387ZM465.088 65.4503H467.05H465.445H465.088ZM382.517 4.99349V9.80862V5.17184V4.99349Z" fill="#BD2D2E"/>
</svg>
